<svg height="331.697" viewBox="0 58.4203 1000 331.697" width="1000" xmlns="http://www.w3.org/2000/svg"><path d="m981.558 348.845c0 11.045-8.955 20-20 20h-928.7552c-11.0457 0-20-8.955-20-20v-249.8501c0-11.0457 8.9543-20 20-20h928.7552c11.045 0 20 8.9543 20 20z" fill="#efefef"/><path d="m981.558 348.845c0 11.045-8.955 20-20 20h-928.7552c-11.0457 0-20-8.955-20-20v-249.8501c0-11.0457 8.9543-20 20-20h928.7552c11.045 0 20 8.9543 20 20z" fill="#212121"/><path d="m247.817 271.975s40.57-100.093 40.57-100.093h13.097s40.091 100.093 40.091 100.093h-15.333s-11.021-27.803-11.021-27.803h-41.369s-10.861 27.803-10.861 27.803zm30.028-39.401h33.063s-6.708-17.318-6.708-17.318c-1.704-4.555-3.328-8.95-4.872-13.187s-3.061-8.579-4.552-13.028h-.319c-1.491 4.449-3.035 8.765-4.633 12.949-1.597 4.183-3.301 8.605-5.111 13.266 0 0-6.868 17.318-6.868 17.318zm74.751 39.401v-74.672h11.021s2.077 10.327 2.077 10.327c3.727-3.707 7.667-6.541 11.819-8.5 4.153-1.96 8.839-2.939 14.056-2.939 7.667 0 13.683 2.144 18.049 6.434s6.549 10.248 6.549 17.874v51.476h-14.056v-49.411c0-4.554-1.198-8.182-3.594-10.883s-6.043-4.051-10.941-4.051c-7.454 0-14.428 3.336-20.924 10.009v54.336zm109.412 0c-7.454 0-12.884-1.615-16.292-4.846-3.407-3.23-5.111-7.917-5.111-14.06v-45.28h-11.181v-10.486h11.181v-23.832h13.896v23.832h22.042v10.486h-22.042v43.373c0 3.601.932 6.064 2.795 7.388 1.864 1.324 4.286 1.986 7.268 1.986 2.129 0 4.472-.238 7.027-.715 2.556-.477 4.792-1.033 6.709-1.668 0 0 2.236 10.645 2.236 10.645-2.13.741-4.845 1.456-8.146 2.144-3.301.689-6.762 1.033-10.382 1.033zm33.862 0v-112.803h13.736v112.803zm70.918 1.43c-7.135 0-13.71-1.35-19.726-4.051-6.017-2.701-10.809-6.885-14.376-12.552-3.567-5.666-5.35-13.001-5.35-22.004 0-7.838 1.517-14.643 4.552-20.416 3.034-5.773 7.32-10.248 12.858-13.425 5.537-3.178 12.032-4.766 19.486-4.766 6.389 0 11.953 1.376 16.691 4.13 4.739 2.754 8.412 6.567 11.021 11.44 2.609 4.872 3.914 10.591 3.914 17.158v7.309h-53.828v.635c0 8.262 2.263 14.617 6.789 19.066 4.525 4.448 10.674 6.672 18.448 6.672 4.046 0 7.667-.317 10.861-.953 3.195-.635 6.602-1.695 10.222-3.177 0 0 2.876 10.327 2.876 10.327-3.089 1.377-6.762 2.489-11.022 3.336-4.259.847-8.731 1.271-13.416 1.271zm-24.438-46.869s38.973-.318 38.973-.318c0-5.507-1.411-10.194-4.233-14.06s-7.374-5.799-13.657-5.799c-5.856 0-10.621 1.88-14.295 5.64s-5.936 8.606-6.788 14.537zm69.799 45.439v-74.672h10.542s2.396 14.934 2.396 14.934c1.81-4.66 4.792-8.5 8.945-11.518 4.153-3.019 8.944-4.528 14.375-4.528 2.769 0 5.085.211 6.948.635 1.864.424 3.487.953 4.872 1.589 0 0-2.716 12.233-2.716 12.233-1.277-.635-2.688-1.165-4.232-1.588-1.544-.424-3.381-.636-5.511-.636-6.069 0-11.207 2.118-15.413 6.355s-6.309 10.433-6.309 18.589v38.607zm79.703 1.43c-4.792 0-9.397-.424-13.816-1.271s-8.226-2.012-11.42-3.495c0 0 3.354-10.963 3.354-10.963 3.088 1.483 6.442 2.675 10.063 3.575 3.62.9 7.294 1.35 11.021 1.35 4.685 0 8.465-.847 11.34-2.542 2.875-1.694 4.313-4.501 4.313-8.42 0-3.39-1.225-5.799-3.674-7.229s-5.963-2.833-10.542-4.21c0 0-4.951-1.589-4.951-1.589-6.815-2.224-11.926-5.031-15.334-8.421-3.407-3.389-5.111-7.679-5.111-12.869 0-6.461 2.582-11.598 7.747-15.411 5.164-3.813 11.633-5.719 19.406-5.719 3.727 0 7.587.344 11.58 1.032 3.993.689 7.8 1.827 11.42 3.416 0 0-3.194 10.645-3.194 10.645-3.514-1.695-6.708-2.86-9.584-3.495-2.875-.636-5.75-.954-8.625-.954-5.004 0-8.758.927-11.26 2.781-2.503 1.853-3.754 4.316-3.754 7.388 0 2.224.852 4.157 2.556 5.799 1.704 1.641 5.271 3.257 10.701 4.845 0 0 4.792 1.43 4.792 1.43 7.135 2.013 12.539 4.714 16.212 8.103 3.674 3.389 5.511 7.944 5.511 13.663 0 6.779-2.529 12.234-7.587 16.365s-12.113 6.196-21.164 6.196z" fill="#fff"/><path d="m247.817 271.975s40.57-100.093 40.57-100.093h13.097s40.091 100.093 40.091 100.093h-15.333s-11.021-27.803-11.021-27.803h-41.369s-10.861 27.803-10.861 27.803zm30.028-39.401h33.063s-6.708-17.318-6.708-17.318c-1.704-4.555-3.328-8.95-4.872-13.187s-3.061-8.579-4.552-13.028h-.319c-1.491 4.449-3.035 8.765-4.633 12.949-1.597 4.183-3.301 8.605-5.111 13.266 0 0-6.868 17.318-6.868 17.318zm74.751 39.401v-74.672h11.021s2.077 10.327 2.077 10.327c3.727-3.707 7.667-6.541 11.819-8.5 4.153-1.96 8.839-2.939 14.056-2.939 7.667 0 13.683 2.144 18.049 6.434s6.549 10.248 6.549 17.874v51.476h-14.056v-49.411c0-4.554-1.198-8.182-3.594-10.883s-6.043-4.051-10.941-4.051c-7.454 0-14.428 3.336-20.924 10.009v54.336zm109.412 0c-7.454 0-12.884-1.615-16.292-4.846-3.407-3.23-5.111-7.917-5.111-14.06v-45.28h-11.181v-10.486h11.181v-23.832h13.896v23.832h22.042v10.486h-22.042v43.373c0 3.601.932 6.064 2.795 7.388 1.864 1.324 4.286 1.986 7.268 1.986 2.129 0 4.472-.238 7.027-.715 2.556-.477 4.792-1.033 6.709-1.668 0 0 2.236 10.645 2.236 10.645-2.13.741-4.845 1.456-8.146 2.144-3.301.689-6.762 1.033-10.382 1.033zm33.862 0v-112.803h13.736v112.803zm70.918 1.43c-7.135 0-13.71-1.35-19.726-4.051-6.017-2.701-10.809-6.885-14.376-12.552-3.567-5.666-5.35-13.001-5.35-22.004 0-7.838 1.517-14.643 4.552-20.416 3.034-5.773 7.32-10.248 12.858-13.425 5.537-3.178 12.032-4.766 19.486-4.766 6.389 0 11.953 1.376 16.691 4.13 4.739 2.754 8.412 6.567 11.021 11.44 2.609 4.872 3.914 10.591 3.914 17.158v7.309h-53.828v.635c0 8.262 2.263 14.617 6.789 19.066 4.525 4.448 10.674 6.672 18.448 6.672 4.046 0 7.667-.317 10.861-.953 3.195-.635 6.602-1.695 10.222-3.177 0 0 2.876 10.327 2.876 10.327-3.089 1.377-6.762 2.489-11.022 3.336-4.259.847-8.731 1.271-13.416 1.271zm-24.438-46.869s38.973-.318 38.973-.318c0-5.507-1.411-10.194-4.233-14.06s-7.374-5.799-13.657-5.799c-5.856 0-10.621 1.88-14.295 5.64s-5.936 8.606-6.788 14.537zm69.799 45.439v-74.672h10.542s2.396 14.934 2.396 14.934c1.81-4.66 4.792-8.5 8.945-11.518 4.153-3.019 8.944-4.528 14.375-4.528 2.769 0 5.085.211 6.948.635 1.864.424 3.487.953 4.872 1.589 0 0-2.716 12.233-2.716 12.233-1.277-.635-2.688-1.165-4.232-1.588-1.544-.424-3.381-.636-5.511-.636-6.069 0-11.207 2.118-15.413 6.355s-6.309 10.433-6.309 18.589v38.607zm79.703 1.43c-4.792 0-9.397-.424-13.816-1.271s-8.226-2.012-11.42-3.495c0 0 3.354-10.963 3.354-10.963 3.088 1.483 6.442 2.675 10.063 3.575 3.62.9 7.294 1.35 11.021 1.35 4.685 0 8.465-.847 11.34-2.542 2.875-1.694 4.313-4.501 4.313-8.42 0-3.39-1.225-5.799-3.674-7.229s-5.963-2.833-10.542-4.21c0 0-4.951-1.589-4.951-1.589-6.815-2.224-11.926-5.031-15.334-8.421-3.407-3.389-5.111-7.679-5.111-12.869 0-6.461 2.582-11.598 7.747-15.411 5.164-3.813 11.633-5.719 19.406-5.719 3.727 0 7.587.344 11.58 1.032 3.993.689 7.8 1.827 11.42 3.416 0 0-3.194 10.645-3.194 10.645-3.514-1.695-6.708-2.86-9.584-3.495-2.875-.636-5.75-.954-8.625-.954-5.004 0-8.758.927-11.26 2.781-2.503 1.853-3.754 4.316-3.754 7.388 0 2.224.852 4.157 2.556 5.799 1.704 1.641 5.271 3.257 10.701 4.845 0 0 4.792 1.43 4.792 1.43 7.135 2.013 12.539 4.714 16.212 8.103 3.674 3.389 5.511 7.944 5.511 13.663 0 6.779-2.529 12.234-7.587 16.365s-12.113 6.196-21.164 6.196z" fill="none" stroke="#fff" stroke-miterlimit="10"/><path d="m145.935 182.534v22.839s-67.6777 24.312-67.6777 24.312 67.6777 24.395 67.6777 24.395v22.757s-94.7971-36.674-94.7971-36.674v-20.956s94.7971-36.673 94.7971-36.673z" fill="#d600ab"/><path d="m170.962 300.74c-5.794-4.475-8.691-10.969-8.691-19.483v-25.622c0-6.876-2.038-12.143-6.116-15.799-2.467-2.238-6.008-4.011-10.622-5.321v-9.905c5.204-1.801 8.879-3.793 11.025-5.976 3.809-3.766 5.713-9.523 5.713-17.273v-21.938c0-2.783.456-5.703 1.368-8.759 1.61-5.294 4.346-9.496 8.209-12.607 3.54-2.837 7.698-4.72 12.473-5.648 2.897-.6 7.055-.928 12.473-.982v13.015c-4.453.983-7.484 2.293-9.093 3.93-2.468 2.51-3.702 6.903-3.702 13.179v18.992c0 6.112-.805 10.969-2.414 14.571-2.736 6.058-8.101 10.969-16.095 14.735 7.243 3.001 12.111 6.494 14.606 10.478s3.796 9.496 3.903 16.536v20.71c0 6.058 1.449 10.424 4.346 13.098 1.609 1.583 4.426 2.974 8.449 4.175v13.016s-5.713-.164-5.713-.164c-7.672-.218-14.378-2.538-20.119-6.958z" fill="#d600aa"/><path d="m170.962 300.74c-5.794-4.475-8.691-10.969-8.691-19.483v-25.622c0-6.876-2.038-12.143-6.116-15.799-2.467-2.238-6.008-4.011-10.622-5.321v-9.905c5.204-1.801 8.879-3.793 11.025-5.976 3.809-3.766 5.713-9.523 5.713-17.273v-21.938c0-2.783.456-5.703 1.368-8.759 1.61-5.294 4.346-9.496 8.209-12.607 3.54-2.837 7.698-4.72 12.473-5.648 2.897-.6 7.055-.928 12.473-.982v13.015c-4.453.983-7.484 2.293-9.093 3.93-2.468 2.51-3.702 6.903-3.702 13.179v18.992c0 6.112-.805 10.969-2.414 14.571-2.736 6.058-8.101 10.969-16.095 14.735 7.243 3.001 12.111 6.494 14.606 10.478s3.796 9.496 3.903 16.536v20.71c0 6.058 1.449 10.424 4.346 13.098 1.609 1.583 4.426 2.974 8.449 4.175v13.016s-5.713-.164-5.713-.164c-7.672-.218-14.378-2.538-20.119-6.958z" fill="#4657ff"/><path d="m832.71 276.755v-22.839s67.678-24.313 67.678-24.313-67.678-24.394-67.678-24.394v-22.757s94.797 36.673 94.797 36.673v20.956s-94.797 36.674-94.797 36.674z" fill="#d600ab"/><path d="m807.682 158.549c5.795 4.475 8.692 10.969 8.692 19.482v25.623c0 6.876 2.038 12.142 6.116 15.799 2.467 2.237 6.008 4.011 10.622 5.321v9.905c-5.204 1.801-8.879 3.792-11.025 5.975-3.809 3.766-5.713 9.524-5.713 17.273v21.939c0 2.783-.456 5.703-1.368 8.759-1.61 5.293-4.346 9.495-8.209 12.606-3.541 2.838-7.698 4.721-12.473 5.649-2.897.6-7.055.927-12.473.982v-13.016c4.452-.982 7.484-2.292 9.093-3.929 2.468-2.511 3.702-6.904 3.702-13.18v-18.991c0-6.113.805-10.97 2.414-14.572 2.736-6.057 8.101-10.969 16.095-14.734-7.243-3.002-12.112-6.495-14.606-10.479-2.495-3.983-3.796-9.495-3.903-16.535v-20.711c0-6.058-1.449-10.424-4.346-13.098-1.609-1.582-4.426-2.974-8.449-4.175v-13.015s5.713.163 5.713.163c7.672.219 14.378 2.538 20.118 6.959z" fill="#d600aa"/><path d="m807.682 158.549c5.795 4.475 8.692 10.969 8.692 19.482v25.623c0 6.876 2.038 12.142 6.116 15.799 2.467 2.237 6.008 4.011 10.622 5.321v9.905c-5.204 1.801-8.879 3.792-11.025 5.975-3.809 3.766-5.713 9.524-5.713 17.273v21.939c0 2.783-.456 5.703-1.368 8.759-1.61 5.293-4.346 9.495-8.209 12.606-3.541 2.838-7.698 4.721-12.473 5.649-2.897.6-7.055.927-12.473.982v-13.016c4.452-.982 7.484-2.292 9.093-3.929 2.468-2.511 3.702-6.904 3.702-13.18v-18.991c0-6.113.805-10.97 2.414-14.572 2.736-6.057 8.101-10.969 16.095-14.734-7.243-3.002-12.112-6.495-14.606-10.479-2.495-3.983-3.796-9.495-3.903-16.535v-20.711c0-6.058-1.449-10.424-4.346-13.098-1.609-1.582-4.426-2.974-8.449-4.175v-13.015s5.713.163 5.713.163c7.672.219 14.378 2.538 20.118 6.959z" fill="#4657ff"/></svg>